<svg width="14" height="16" viewBox="0 0 14 16" fill="none" xmlns="http://www.w3.org/2000/svg">
<path d="M6.99992 9.14039C6.79836 9.14039 6.60505 9.22046 6.46252 9.36299C6.31999 9.50552 6.23992 9.69883 6.23992 9.90039V12.1804C6.23992 12.382 6.31999 12.5753 6.46252 12.7178C6.60505 12.8603 6.79836 12.9404 6.99992 12.9404C7.20149 12.9404 7.3948 12.8603 7.53732 12.7178C7.67985 12.5753 7.75992 12.382 7.75992 12.1804V9.90039C7.75992 9.69883 7.67985 9.50552 7.53732 9.36299C7.3948 9.22046 7.20149 9.14039 6.99992 9.14039ZM7.28872 6.92119C7.15115 6.8574 6.99763 6.83623 6.84792 6.86039L6.71112 6.90599L6.57432 6.97439L6.46032 7.06559C6.38804 7.1384 6.33125 7.22509 6.29337 7.32044C6.25549 7.41579 6.23731 7.51783 6.23992 7.62039C6.23934 7.72041 6.25852 7.81956 6.29634 7.91216C6.33416 8.00476 6.38988 8.08898 6.46032 8.15999C6.5326 8.22918 6.61783 8.28342 6.71112 8.31959C6.80132 8.36214 6.90023 8.38296 6.99992 8.38039C7.09994 8.38097 7.19909 8.3618 7.29169 8.32398C7.38429 8.28616 7.46851 8.23043 7.53952 8.15999C7.60996 8.08898 7.66569 8.00476 7.70351 7.91216C7.74133 7.81956 7.7605 7.72041 7.75992 7.62039C7.7605 7.52037 7.74133 7.42122 7.70351 7.32862C7.66569 7.23602 7.60996 7.15181 7.53952 7.08079C7.46565 7.01366 7.38082 6.95968 7.28872 6.92119ZM13.0799 5.67479C13.072 5.60497 13.0567 5.53619 13.0343 5.46959V5.40119C12.9978 5.32305 12.949 5.25122 12.8899 5.18839L8.32992 0.628391C8.2671 0.569275 8.19527 0.520532 8.11712 0.483991H8.04112C7.96722 0.444473 7.8878 0.416291 7.80552 0.400391H3.19992C2.59523 0.400391 2.0153 0.640604 1.58772 1.06819C1.16014 1.49577 0.919922 2.0757 0.919922 2.68039V13.3204C0.919922 13.9251 1.16014 14.505 1.58772 14.9326C2.0153 15.3602 2.59523 15.6004 3.19992 15.6004H10.7999C11.4046 15.6004 11.9845 15.3602 12.4121 14.9326C12.8397 14.505 13.0799 13.9251 13.0799 13.3204V5.72039C13.0799 5.72039 13.0799 5.72039 13.0799 5.67479ZM8.51992 2.99199L10.4883 4.96039H9.27992C9.07836 4.96039 8.88505 4.88032 8.74252 4.73779C8.59999 4.59526 8.51992 4.40196 8.51992 4.20039V2.99199ZM11.5599 13.3204C11.5599 13.522 11.4799 13.7153 11.3373 13.8578C11.1948 14.0003 11.0015 14.0804 10.7999 14.0804H3.19992C2.99836 14.0804 2.80505 14.0003 2.66252 13.8578C2.51999 13.7153 2.43992 13.522 2.43992 13.3204V2.68039C2.43992 2.47883 2.51999 2.28552 2.66252 2.14299C2.80505 2.00046 2.99836 1.92039 3.19992 1.92039H6.99992V4.20039C6.99992 4.80508 7.24014 5.38501 7.66772 5.81259C8.0953 6.24018 8.67523 6.48039 9.27992 6.48039H11.5599V13.3204Z" fill="#3176B1"/>
</svg>
