<svg width="14" height="17" viewBox="0 0 14 17" fill="none" xmlns="http://www.w3.org/2000/svg">
<path d="M6.99992 9.64039C6.79836 9.64039 6.60505 9.72046 6.46252 9.86299C6.31999 10.0055 6.23992 10.1988 6.23992 10.4004V12.6804C6.23992 12.882 6.31999 13.0753 6.46252 13.2178C6.60505 13.3603 6.79836 13.4404 6.99992 13.4404C7.20149 13.4404 7.3948 13.3603 7.53732 13.2178C7.67985 13.0753 7.75992 12.882 7.75992 12.6804V10.4004C7.75992 10.1988 7.67985 10.0055 7.53732 9.86299C7.3948 9.72046 7.20149 9.64039 6.99992 9.64039ZM7.28872 7.42119C7.15115 7.3574 6.99763 7.33623 6.84792 7.36039L6.71112 7.40599L6.57432 7.47439L6.46032 7.56559C6.38804 7.6384 6.33125 7.72509 6.29337 7.82044C6.25549 7.91579 6.23731 8.01783 6.23992 8.12039C6.23934 8.22041 6.25852 8.31956 6.29634 8.41216C6.33416 8.50476 6.38988 8.58898 6.46032 8.65999C6.5326 8.72918 6.61783 8.78342 6.71112 8.81959C6.80132 8.86214 6.90023 8.88296 6.99992 8.88039C7.09994 8.88097 7.19909 8.8618 7.29169 8.82398C7.38429 8.78616 7.46851 8.73043 7.53952 8.65999C7.60996 8.58898 7.66569 8.50476 7.70351 8.41216C7.74133 8.31956 7.7605 8.22041 7.75992 8.12039C7.7605 8.02037 7.74133 7.92122 7.70351 7.82862C7.66569 7.73602 7.60996 7.65181 7.53952 7.58079C7.46565 7.51366 7.38082 7.45968 7.28872 7.42119ZM13.0799 6.17479C13.072 6.10497 13.0567 6.03619 13.0343 5.96959V5.90119C12.9978 5.82305 12.949 5.75122 12.8899 5.68839L8.32992 1.12839C8.2671 1.06927 8.19527 1.02053 8.11712 0.983991H8.04112C7.96722 0.944473 7.8878 0.916291 7.80552 0.900391H3.19992C2.59523 0.900391 2.0153 1.1406 1.58772 1.56819C1.16014 1.99577 0.919922 2.5757 0.919922 3.18039V13.8204C0.919922 14.4251 1.16014 15.005 1.58772 15.4326C2.0153 15.8602 2.59523 16.1004 3.19992 16.1004H10.7999C11.4046 16.1004 11.9845 15.8602 12.4121 15.4326C12.8397 15.005 13.0799 14.4251 13.0799 13.8204V6.22039C13.0799 6.22039 13.0799 6.22039 13.0799 6.17479ZM8.51992 3.49199L10.4883 5.46039H9.27992C9.07836 5.46039 8.88505 5.38032 8.74252 5.23779C8.59999 5.09526 8.51992 4.90196 8.51992 4.70039V3.49199ZM11.5599 13.8204C11.5599 14.022 11.4799 14.2153 11.3373 14.3578C11.1948 14.5003 11.0015 14.5804 10.7999 14.5804H3.19992C2.99836 14.5804 2.80505 14.5003 2.66252 14.3578C2.51999 14.2153 2.43992 14.022 2.43992 13.8204V3.18039C2.43992 2.97883 2.51999 2.78552 2.66252 2.64299C2.80505 2.50046 2.99836 2.42039 3.19992 2.42039H6.99992V4.70039C6.99992 5.30508 7.24014 5.88501 7.66772 6.31259C8.0953 6.74018 8.67523 6.98039 9.27992 6.98039H11.5599V13.8204Z" fill="black"/>
</svg>
