<svg width="24" height="24" viewBox="0 0 24 24" fill="none" xmlns="http://www.w3.org/2000/svg">
<circle cx="12" cy="12" r="12" fill="#DBEEFD"/>
<g clip-path="url(#clip0_2215_6731)">
<path d="M11.9999 13.1404C11.7984 13.1404 11.605 13.2205 11.4625 13.363C11.32 13.5055 11.2399 13.6988 11.2399 13.9004V16.1804C11.2399 16.382 11.32 16.5753 11.4625 16.7178C11.605 16.8603 11.7984 16.9404 11.9999 16.9404C12.2015 16.9404 12.3948 16.8603 12.5373 16.7178C12.6799 16.5753 12.7599 16.382 12.7599 16.1804V13.9004C12.7599 13.6988 12.6799 13.5055 12.5373 13.363C12.3948 13.2205 12.2015 13.1404 11.9999 13.1404ZM12.2887 10.9212C12.1511 10.8574 11.9976 10.8362 11.8479 10.8604L11.7111 10.906L11.5743 10.9744L11.4603 11.0656C11.388 11.1384 11.3312 11.2251 11.2934 11.3204C11.2555 11.4158 11.2373 11.5178 11.2399 11.6204C11.2393 11.7204 11.2585 11.8196 11.2963 11.9122C11.3342 12.0048 11.3899 12.089 11.4603 12.16C11.5326 12.2292 11.6178 12.2834 11.7111 12.3196C11.8013 12.3621 11.9002 12.383 11.9999 12.3804C12.0999 12.381 12.1991 12.3618 12.2917 12.324C12.3843 12.2862 12.4685 12.2304 12.5395 12.16C12.61 12.089 12.6657 12.0048 12.7035 11.9122C12.7413 11.8196 12.7605 11.7204 12.7599 11.6204C12.7605 11.5204 12.7413 11.4212 12.7035 11.3286C12.6657 11.236 12.61 11.1518 12.5395 11.0808C12.4656 11.0137 12.3808 10.9597 12.2887 10.9212ZM18.0799 9.67479C18.072 9.60497 18.0567 9.53619 18.0343 9.46959V9.40119C17.9978 9.32305 17.949 9.25122 17.8899 9.18839L13.3299 4.62839C13.2671 4.56927 13.1953 4.52053 13.1171 4.48399H13.0411C12.9672 4.44447 12.8878 4.41629 12.8055 4.40039H8.19992C7.59523 4.40039 7.0153 4.6406 6.58772 5.06819C6.16014 5.49577 5.91992 6.0757 5.91992 6.68039V17.3204C5.91992 17.9251 6.16014 18.505 6.58772 18.9326C7.0153 19.3602 7.59523 19.6004 8.19992 19.6004H15.7999C16.4046 19.6004 16.9845 19.3602 17.4121 18.9326C17.8397 18.505 18.0799 17.9251 18.0799 17.3204V9.72039C18.0799 9.72039 18.0799 9.72039 18.0799 9.67479ZM13.5199 6.99199L15.4883 8.96039H14.2799C14.0784 8.96039 13.885 8.88032 13.7425 8.73779C13.6 8.59526 13.5199 8.40196 13.5199 8.20039V6.99199ZM16.5599 17.3204C16.5599 17.522 16.4799 17.7153 16.3373 17.8578C16.1948 18.0003 16.0015 18.0804 15.7999 18.0804H8.19992C7.99836 18.0804 7.80505 18.0003 7.66252 17.8578C7.51999 17.7153 7.43992 17.522 7.43992 17.3204V6.68039C7.43992 6.47883 7.51999 6.28552 7.66252 6.14299C7.80505 6.00046 7.99836 5.92039 8.19992 5.92039H11.9999V8.20039C11.9999 8.80508 12.2401 9.38501 12.6677 9.81259C13.0953 10.2402 13.6752 10.4804 14.2799 10.4804H16.5599V17.3204Z" fill="#3176B1"/>
</g>
<defs>
<clipPath id="clip0_2215_6731">
<rect width="15.2" height="15.2" fill="white" transform="translate(4.3999 4.40039)"/>
</clipPath>
</defs>
</svg>
