<svg width="21" height="20" viewBox="0 0 21 20" fill="none" xmlns="http://www.w3.org/2000/svg">
<path fill-rule="evenodd" clip-rule="evenodd" d="M2.87158 10.0003C2.87158 5.95024 6.15483 2.66699 10.2049 2.66699C14.255 2.66699 17.5382 5.95024 17.5382 10.0003C17.5382 14.0504 14.255 17.3337 10.2049 17.3337C6.15483 17.3337 2.87158 14.0504 2.87158 10.0003ZM11.043 6.64794C11.043 7.11081 10.6678 7.48604 10.2049 7.48604C9.74205 7.48604 9.36682 7.11081 9.36682 6.64794C9.36682 6.18508 9.74205 5.80985 10.2049 5.80985C10.6678 5.80985 11.043 6.18508 11.043 6.64794ZM10.2049 8.95271C10.5521 8.95271 10.8335 9.23413 10.8335 9.58128V13.7718C10.8335 14.1189 10.5521 14.4003 10.2049 14.4003C9.85776 14.4003 9.57634 14.1189 9.57634 13.7718V9.58128C9.57634 9.23413 9.85776 8.95271 10.2049 8.95271Z" fill="#BFD6E3"/>
</svg>
