<svg width="17" height="13" viewBox="0 0 17 13" fill="none" xmlns="http://www.w3.org/2000/svg">
<path d="M15.2396 0.5625H4.84896C4.37099 0.5625 3.99693 0.793403 3.74755 1.14306L1.06696 5.69622C0.774939 6.19224 0.775105 6.80766 1.06739 7.30352L3.74755 11.8503C3.99693 12.2 4.41948 12.4375 4.89745 12.4375H15.2396C16.0016 12.4375 16.625 11.8438 16.625 11.1181V1.88194C16.625 1.15625 16.0016 0.5625 15.2396 0.5625ZM15.2396 10.3264C15.2396 10.7636 14.8851 11.1181 14.4479 11.1181H5.83674C5.25766 11.1181 4.72477 10.8019 4.44718 10.2937L2.582 6.87898C2.45297 6.64275 2.45281 6.35716 2.58156 6.12078L4.44062 2.70789C4.71793 2.19878 5.25132 1.88194 5.83105 1.88194H14.4479C14.8851 1.88194 15.2396 2.23639 15.2396 2.67361V10.3264Z" fill="#077EA6"/>
<path d="M6.23438 7.48958C6.80823 7.48958 7.27344 7.04653 7.27344 6.5C7.27344 5.95347 6.80823 5.51042 6.23438 5.51042C5.66052 5.51042 5.19531 5.95347 5.19531 6.5C5.19531 7.04653 5.66052 7.48958 6.23438 7.48958Z" fill="#077EA6"/>
<path d="M9.69792 7.48958C10.2718 7.48958 10.737 7.04653 10.737 6.5C10.737 5.95347 10.2718 5.51042 9.69792 5.51042C9.12406 5.51042 8.65885 5.95347 8.65885 6.5C8.65885 7.04653 9.12406 7.48958 9.69792 7.48958Z" fill="#077EA6"/>
<path d="M13.1615 7.48958C13.7353 7.48958 14.2005 7.04653 14.2005 6.5C14.2005 5.95347 13.7353 5.51042 13.1615 5.51042C12.5876 5.51042 12.1224 5.95347 12.1224 6.5C12.1224 7.04653 12.5876 7.48958 13.1615 7.48958Z" fill="#077EA6"/>
</svg>
